<svg width="50" height="28" viewBox="0 0 50 28" fill="none" xmlns="http://www.w3.org/2000/svg">
<path d="M6.12305 9.13477C5.68945 9.13477 5.28711 9.04883 4.91602 8.87695C4.54492 8.70508 4.2207 8.46875 3.94336 8.16797C3.66602 7.86719 3.44922 7.52344 3.29297 7.13672C3.14062 6.75 3.06445 6.33984 3.06445 5.90625C3.06445 5.375 3.16797 4.89258 3.375 4.45898C3.58203 4.02539 3.85547 3.6543 4.19531 3.3457C4.53516 3.03711 4.9043 2.80664 5.30273 2.6543C5.36133 2.63086 5.43359 2.61914 5.51953 2.61914C5.67969 2.61914 5.81641 2.67578 5.92969 2.78906C6.04688 2.90234 6.10547 3.03906 6.10547 3.19922C6.10547 3.3125 6.06641 3.42383 5.98828 3.5332C5.91406 3.63867 5.82422 3.71094 5.71875 3.75C5.32031 3.90234 4.97266 4.16797 4.67578 4.54688C4.38281 4.92578 4.23633 5.37891 4.23633 5.90625C4.23633 6.26562 4.31836 6.60352 4.48242 6.91992C4.65039 7.23242 4.87695 7.48438 5.16211 7.67578C5.44727 7.86719 5.76758 7.96289 6.12305 7.96289C6.62695 7.96289 6.96875 7.80273 7.14844 7.48242C7.33203 7.1582 7.42383 6.73828 7.42383 6.22266V5.63086C7.42383 5.06055 7.51367 4.54883 7.69336 4.0957C7.87305 3.63867 8.14648 3.2793 8.51367 3.01758C8.88086 2.75195 9.34766 2.61914 9.91406 2.61914C10.4102 2.61914 10.8477 2.72656 11.2266 2.94141C11.6094 3.15234 11.9316 3.4375 12.1934 3.79688C12.4551 4.15234 12.6523 4.55273 12.7852 4.99805C12.918 5.43945 12.9844 5.88867 12.9844 6.3457C12.9844 7.19336 12.8105 7.93555 12.4629 8.57227C12.1191 9.20898 11.6543 9.73633 11.0684 10.1543C10.4824 10.5762 9.82227 10.8926 9.08789 11.1035C8.35352 11.3145 7.59961 11.4199 6.82617 11.4199C6.0332 11.4199 5.25586 11.3105 4.49414 11.0918C3.73633 10.873 3.05078 10.5469 2.4375 10.1133C1.82812 9.67969 1.3418 9.13867 0.978516 8.49023C0.619141 7.83789 0.439453 7.08008 0.439453 6.2168C0.439453 5.57617 0.564453 4.95703 0.814453 4.35938C1.06445 3.76172 1.41992 3.23828 1.88086 2.78906C1.99414 2.67578 2.13281 2.61914 2.29688 2.61914C2.45703 2.61914 2.59375 2.67773 2.70703 2.79492C2.82422 2.9082 2.88281 3.04492 2.88281 3.20508C2.88281 3.27539 2.86328 3.35156 2.82422 3.43359C2.78906 3.51562 2.74609 3.58008 2.69531 3.62695C2.35156 3.95898 2.08398 4.35742 1.89258 4.82227C1.70508 5.2832 1.61133 5.75391 1.61133 6.23438C1.61133 6.90234 1.75781 7.49023 2.05078 7.99805C2.34766 8.50195 2.74609 8.92188 3.24609 9.25781C3.74609 9.59766 4.30469 9.85156 4.92188 10.0195C5.54297 10.1914 6.17578 10.2773 6.82031 10.2773C7.44922 10.2773 8.06055 10.1953 8.6543 10.0312C9.24805 9.87109 9.7832 9.62695 10.2598 9.29883C10.7363 8.97461 11.1133 8.56641 11.3906 8.07422C11.6719 7.58203 11.8125 7.00781 11.8125 6.35156C11.8125 5.94141 11.7422 5.54102 11.6016 5.15039C11.4648 4.75977 11.2559 4.4375 10.9746 4.18359C10.6934 3.92969 10.3379 3.80273 9.9082 3.80273C9.56836 3.80273 9.30273 3.88477 9.11133 4.04883C8.91992 4.21289 8.78516 4.43555 8.70703 4.7168C8.63281 4.99414 8.5957 5.30859 8.5957 5.66016V6.24609C8.5957 6.80078 8.50391 7.29688 8.32031 7.73438C8.14062 8.16797 7.86719 8.50977 7.5 8.75977C7.13672 9.00977 6.67773 9.13477 6.12305 9.13477ZM16.9043 2.5957C17.3809 2.5957 17.8105 2.70508 18.1934 2.92383C18.5762 3.14258 18.877 3.40234 19.0957 3.70312C19.3145 3.39844 19.6113 3.13672 19.9863 2.91797C20.3613 2.69922 20.7949 2.58984 21.2871 2.58984C21.8574 2.58984 22.3652 2.73438 22.8105 3.02344C23.2559 3.30859 23.6055 3.68555 23.8594 4.1543C24.1172 4.62305 24.2461 5.13477 24.2461 5.68945C24.2461 6.0957 24.1738 6.49219 24.0293 6.87891C23.8887 7.26172 23.6934 7.60742 23.4434 7.91602H24.9082L24.8965 6.11719C24.8965 5.46484 25.002 4.87109 25.2129 4.33594C25.4277 3.79688 25.75 3.36719 26.1797 3.04688C26.6094 2.72266 27.1484 2.56055 27.7969 2.56055C28.3828 2.56055 28.8984 2.71289 29.3438 3.01758C29.793 3.32227 30.1387 3.72656 30.3809 4.23047C30.627 4.73438 30.7402 5.2832 30.7207 5.87695L30.6387 8.48438C30.6348 8.62891 30.5781 8.75586 30.4688 8.86523C30.3594 8.97461 30.2305 9.0293 30.082 9.0293L21.1289 9.00586C20.9688 9.00586 20.8301 8.96484 20.7129 8.88281C20.5996 8.79688 20.543 8.67383 20.543 8.51367C20.543 8.36523 20.5938 8.23438 20.6953 8.12109C20.7969 8.00781 20.9199 7.94336 21.0645 7.92773C21.4238 7.88477 21.7559 7.76367 22.0605 7.56445C22.3652 7.36523 22.6094 7.10742 22.793 6.79102C22.9766 6.4707 23.0684 6.10938 23.0684 5.70703C23.0684 5.35938 22.9941 5.03906 22.8457 4.74609C22.6973 4.44922 22.4902 4.21094 22.2246 4.03125C21.959 3.85156 21.6484 3.76172 21.293 3.76172C20.8672 3.76172 20.5391 3.84961 20.3086 4.02539C20.0781 4.19727 19.918 4.44336 19.8281 4.76367C19.7422 5.08008 19.6973 5.45312 19.6934 5.88281L19.6816 8.51953C19.6777 8.67578 19.6191 8.8125 19.5059 8.92969C19.3926 9.04297 19.2559 9.09961 19.0957 9.09961C18.9355 9.09961 18.7988 9.04297 18.6855 8.92969C18.5723 8.81641 18.5137 8.67969 18.5098 8.51953L18.5039 5.8418C18.5039 5.41602 18.457 5.04883 18.3633 4.74023C18.2734 4.43164 18.1113 4.19336 17.877 4.02539C17.6465 3.85742 17.3223 3.77344 16.9043 3.77344C16.5605 3.77344 16.248 3.86328 15.9668 4.04297C15.6895 4.22266 15.4668 4.46094 15.2988 4.75781C15.1309 5.05078 15.0469 5.37109 15.0469 5.71875C15.0469 6.11719 15.1426 6.48438 15.334 6.82031C15.5254 7.15234 15.7852 7.41992 16.1133 7.62305C16.4414 7.82227 16.8066 7.92383 17.209 7.92773H17.2148C17.375 7.92773 17.5117 7.98633 17.625 8.10352C17.7422 8.2168 17.8008 8.35352 17.8008 8.51367C17.8008 8.67383 17.7422 8.8125 17.625 8.92969C17.5117 9.04297 17.375 9.09961 17.2148 9.09961C16.7539 9.09961 16.3203 9.01367 15.9141 8.8418C15.5117 8.66992 15.1562 8.43164 14.8477 8.12695C14.543 7.81836 14.3027 7.46289 14.127 7.06055C13.9551 6.6543 13.8691 6.2168 13.8691 5.74805C13.8691 5.31836 13.9473 4.91406 14.1035 4.53516C14.2637 4.15625 14.4824 3.82227 14.7598 3.5332C15.041 3.24023 15.3652 3.01172 15.7324 2.84766C16.0996 2.67969 16.4902 2.5957 16.9043 2.5957ZM27.7852 3.68555C27.3711 3.68555 27.0332 3.79102 26.7715 4.00195C26.5098 4.20898 26.3164 4.49023 26.1914 4.8457C26.0703 5.19727 26.0098 5.5918 26.0098 6.0293L26.0215 7.91602H29.5371L29.5898 6.06445C29.5898 5.64258 29.5293 5.25195 29.4082 4.89258C29.2871 4.5293 29.0938 4.23828 28.8281 4.01953C28.5664 3.79688 28.2188 3.68555 27.7852 3.68555ZM39.0234 11.6602C38.707 11.6602 38.4121 11.5781 38.1387 11.4141C37.8652 11.2539 37.6445 11.0391 37.4766 10.7695C37.3125 10.5 37.2305 10.2051 37.2305 9.88477C37.2305 9.53711 37.3125 9.22461 37.4766 8.94727C37.6406 8.66602 37.8594 8.44336 38.1328 8.2793C38.4102 8.11523 38.7188 8.0332 39.0586 8.0332C39.3867 8.0332 39.6855 8.11719 39.9551 8.28516C40.2285 8.44922 40.4453 8.66992 40.6055 8.94727C40.7695 9.22461 40.8516 9.52734 40.8516 9.85547C40.8516 10.1914 40.7676 10.4961 40.5996 10.7695C40.4355 11.043 40.2148 11.2598 39.9375 11.4199C39.6641 11.5801 39.3594 11.6602 39.0234 11.6602ZM39.8613 9.84375C39.8613 9.62109 39.7812 9.42969 39.6211 9.26953C39.4648 9.11328 39.2773 9.03516 39.0586 9.03516C38.8398 9.03516 38.6445 9.11523 38.4727 9.27539C38.3047 9.43945 38.2207 9.625 38.2207 9.83203C38.2207 10.082 38.2969 10.2812 38.4492 10.4297C38.6016 10.582 38.7969 10.6582 39.0352 10.6582C39.2656 10.6582 39.4609 10.5781 39.6211 10.418C39.7812 10.2617 39.8613 10.0703 39.8613 9.84375ZM39.7266 3.1875C39.7266 3.02734 39.7832 2.89062 39.8965 2.77734C40.0137 2.66016 40.1523 2.60156 40.3125 2.60156C40.4727 2.60156 40.6094 2.66016 40.7227 2.77734C40.8398 2.89062 40.8984 3.02734 40.8984 3.1875V3.19336L40.9043 8.39648C40.9043 8.55664 40.8457 8.69531 40.7285 8.8125C40.6152 8.92578 40.4785 8.98242 40.3184 8.98242L34.5469 8.98828C34.3867 8.98828 34.248 8.93164 34.1309 8.81836C34.0176 8.70117 33.9609 8.5625 33.9609 8.40234C33.9609 8.29688 33.9941 8.19336 34.0605 8.0918C34.1309 7.98633 34.2148 7.91211 34.3125 7.86914C34.4883 7.79102 34.6406 7.66602 34.7695 7.49414C34.8984 7.32227 34.9629 7.11133 34.9629 6.86133C34.9629 6.55664 34.8555 6.29883 34.6406 6.08789C34.4258 5.87695 34.168 5.77148 33.8672 5.77148C33.5703 5.77148 33.3125 5.87695 33.0938 6.08789C32.8789 6.29492 32.7715 6.55078 32.7715 6.85547C32.7715 7.11719 32.8438 7.33789 32.9883 7.51758C33.1328 7.69727 33.3008 7.82227 33.4922 7.89258C33.6016 7.93164 33.6934 8.00586 33.7676 8.11523C33.8457 8.22461 33.8848 8.33594 33.8848 8.44922C33.8848 8.60938 33.8262 8.74805 33.709 8.86523C33.5957 8.97852 33.459 9.03516 33.2988 9.03516C33.2246 9.03516 33.1562 9.02148 33.0938 8.99414C32.6953 8.8457 32.3457 8.58789 32.0449 8.2207C31.748 7.84961 31.5996 7.39844 31.5996 6.86719C31.5996 6.44141 31.7012 6.05859 31.9043 5.71875C32.1074 5.375 32.3809 5.10352 32.7246 4.9043C33.0684 4.70117 33.4492 4.59961 33.8672 4.59961C34.2891 4.59961 34.6699 4.70117 35.0098 4.9043C35.3535 5.10352 35.627 5.375 35.8301 5.71875C36.0332 6.05859 36.1348 6.44141 36.1348 6.86719C36.1348 7.19922 36.0645 7.51562 35.9238 7.81641L39.7324 7.81055L39.7266 5.4375C39.4961 5.50391 39.2441 5.53711 38.9707 5.53711C38.627 5.53711 38.3262 5.48633 38.0684 5.38477C37.8105 5.2832 37.5742 5.1582 37.3594 5.00977C37.1445 4.85742 36.9355 4.70703 36.7324 4.55859C36.5293 4.41016 36.3145 4.28516 36.0879 4.18359C35.8613 4.08203 35.6035 4.03125 35.3145 4.03125C34.9355 4.03125 34.6035 4.14844 34.3184 4.38281C34.2012 4.47656 34.0742 4.52344 33.9375 4.52344C33.7773 4.52344 33.6387 4.4668 33.5215 4.35352C33.4082 4.23633 33.3516 4.09766 33.3516 3.9375C33.3516 3.75781 33.4219 3.60742 33.5625 3.48633C34.0586 3.06836 34.6348 2.85938 35.291 2.85938C35.6348 2.85938 35.9336 2.91016 36.1875 3.01172C36.4453 3.11328 36.6797 3.23828 36.8906 3.38672C37.1016 3.53516 37.3086 3.68555 37.5117 3.83789C37.7148 3.98633 37.9316 4.11133 38.1621 4.21289C38.3926 4.31445 38.6562 4.36523 38.9531 4.36523C39.2344 4.36523 39.4922 4.30664 39.7266 4.18945V3.1875ZM46.7051 9.09961C46.248 9.09961 45.8301 8.98828 45.4512 8.76562C45.0723 8.54297 44.7676 8.24219 44.5371 7.86328C44.3105 7.48047 44.1973 7.05078 44.1973 6.57422C44.1973 6.09375 44.3086 5.66016 44.5312 5.27344C44.7578 4.88672 45.0645 4.58008 45.4512 4.35352C45.8379 4.12695 46.2734 4.01367 46.7578 4.01367C46.3828 3.84961 45.9844 3.76758 45.5625 3.76758C45.0977 3.76758 44.6621 3.86914 44.2559 4.07227C43.8535 4.27148 43.5273 4.54883 43.2773 4.9043C43.0312 5.25977 42.9082 5.67188 42.9082 6.14062C42.9082 6.57031 43.0078 6.94141 43.207 7.25391C43.4062 7.5625 43.6445 7.80469 43.9219 7.98047C44 8.02734 44.0664 8.09961 44.1211 8.19727C44.1758 8.29492 44.2031 8.38867 44.2031 8.47852C44.2031 8.63867 44.1445 8.77734 44.0273 8.89453C43.9141 9.00781 43.7773 9.06445 43.6172 9.06445C43.5039 9.06445 43.3984 9.0332 43.3008 8.9707C42.8711 8.70117 42.502 8.32812 42.1934 7.85156C41.8887 7.375 41.7363 6.80664 41.7363 6.14648C41.7363 5.62695 41.8379 5.15039 42.041 4.7168C42.248 4.2832 42.5293 3.9082 42.8848 3.5918C43.2402 3.27539 43.6465 3.03125 44.1035 2.85938C44.5645 2.68359 45.0508 2.5957 45.5625 2.5957C46.0781 2.5957 46.5664 2.68359 47.0273 2.85938C47.4922 3.03516 47.9043 3.2832 48.2637 3.60352C48.627 3.92383 48.9121 4.30273 49.1191 4.74023C49.3262 5.17773 49.4297 5.65625 49.4297 6.17578C49.4297 6.6875 49.3145 7.16602 49.084 7.61133C48.8574 8.05664 48.5391 8.41602 48.1289 8.68945C47.7227 8.96289 47.248 9.09961 46.7051 9.09961ZM45.375 6.55664C45.375 6.94336 45.5039 7.26953 45.7617 7.53516C46.0234 7.79688 46.3379 7.92773 46.7051 7.92773C47.0137 7.92773 47.2754 7.85938 47.4902 7.72266C47.7051 7.58203 47.8691 7.4043 47.9824 7.18945C48.0957 6.9707 48.1523 6.74609 48.1523 6.51562C48.1523 6.17969 48.0312 5.875 47.7891 5.60156C47.5508 5.32812 47.2109 5.19141 46.7695 5.19141C46.375 5.19141 46.043 5.32227 45.7734 5.58398C45.5078 5.8457 45.375 6.16992 45.375 6.55664Z" fill="white"/>
<path d="M3.41016 22.0879C2.98828 22.0879 2.5957 22.0039 2.23242 21.8359C1.87305 21.6641 1.55859 21.4316 1.28906 21.1387C1.02344 20.8418 0.814453 20.5039 0.662109 20.125C0.513672 19.7422 0.439453 19.3398 0.439453 18.918C0.439453 18.3906 0.539062 17.9121 0.738281 17.4824C0.941406 17.0527 1.20898 16.6836 1.54102 16.375C1.87695 16.0625 2.24023 15.8281 2.63086 15.6719C2.7168 15.6406 2.79297 15.625 2.85938 15.625C3.01953 15.625 3.15625 15.6836 3.26953 15.8008C3.38672 15.9141 3.44531 16.0508 3.44531 16.2109C3.44531 16.3203 3.4082 16.4277 3.33398 16.5332C3.25977 16.6387 3.17188 16.7129 3.07031 16.7559C2.67969 16.9121 2.33789 17.1816 2.04492 17.5645C1.75586 17.9434 1.61133 18.3945 1.61133 18.918C1.61133 19.2656 1.68945 19.5918 1.8457 19.8965C2.00195 20.2012 2.21484 20.4473 2.48438 20.6348C2.75391 20.8223 3.06055 20.916 3.4043 20.916C3.9043 20.916 4.24414 20.75 4.42383 20.418C4.60352 20.0859 4.69336 19.6641 4.69336 19.1523V18.5664C4.69336 17.9922 4.78711 17.4824 4.97461 17.0371C5.16602 16.5879 5.45117 16.2344 5.83008 15.9766C6.21289 15.7188 6.6875 15.5898 7.25391 15.5898C7.67969 15.5898 8.07422 15.6777 8.4375 15.8535C8.80469 16.0293 9.125 16.2676 9.39844 16.5684C9.67578 16.8691 9.89062 17.2129 10.043 17.5996C10.1992 17.9824 10.2773 18.3828 10.2773 18.8008C10.2773 19.1797 10.2051 19.5645 10.0605 19.9551C9.91602 20.3457 9.71484 20.7031 9.45703 21.0273C9.20312 21.3516 8.9082 21.6133 8.57227 21.8125C8.24023 22.0117 7.88477 22.1113 7.50586 22.1113C7.3457 22.1113 7.20703 22.0547 7.08984 21.9414C6.97656 21.8242 6.91992 21.6855 6.91992 21.5254C6.91992 21.3926 6.96484 21.2715 7.05469 21.1621C7.14453 21.0488 7.25391 20.9785 7.38281 20.9512C7.69141 20.8809 7.97461 20.7461 8.23242 20.5469C8.49414 20.3438 8.70508 20.0938 8.86523 19.7969C9.02539 19.4961 9.10547 19.1641 9.10547 18.8008C9.10547 18.4492 9.02344 18.1191 8.85938 17.8105C8.69531 17.498 8.47266 17.2461 8.19141 17.0547C7.91406 16.8594 7.59766 16.7617 7.24219 16.7617C6.72266 16.7617 6.36328 16.9336 6.16406 17.2773C5.96484 17.6172 5.86523 18.0547 5.86523 18.5898V19.1758C5.86523 19.7305 5.77539 20.2285 5.5957 20.6699C5.41992 21.1074 5.15039 21.4531 4.78711 21.707C4.42383 21.9609 3.96484 22.0879 3.41016 22.0879ZM12.082 24.4668C12.418 24.4668 12.6973 24.3516 12.9199 24.1211C13.1465 23.8906 13.2598 23.6113 13.2598 23.2832C13.2598 22.9199 13.1855 22.5684 13.0371 22.2285C12.8926 21.8926 12.7129 21.5566 12.498 21.2207C12.2871 20.8848 12.0742 20.541 11.8594 20.1895C11.6445 19.8379 11.4629 19.4688 11.3145 19.082C11.1699 18.6953 11.0977 18.2793 11.0977 17.834C11.0977 17.3379 11.1699 16.8555 11.3145 16.3867C11.3457 16.2617 11.4141 16.166 11.5195 16.0996C11.625 16.0293 11.7383 15.9941 11.8594 15.9941C11.9883 15.9941 12.1113 16.041 12.2285 16.1348C12.3457 16.2285 12.4043 16.3457 12.4043 16.4863C12.4043 16.5254 12.4023 16.5625 12.3984 16.5977C12.3984 16.6328 12.3945 16.666 12.3867 16.6973C12.2734 17.1191 12.2168 17.5156 12.2168 17.8867C12.2168 18.3203 12.2891 18.7188 12.4336 19.082C12.582 19.4414 12.7637 19.7852 12.9785 20.1133C13.1934 20.4414 13.4082 20.7676 13.623 21.0918C13.8379 21.416 14.0176 21.7559 14.1621 22.1113C14.3105 22.4707 14.3848 22.8613 14.3848 23.2832C14.3848 23.6934 14.2852 24.0742 14.0859 24.4258C13.8867 24.7773 13.6152 25.0586 13.2715 25.2695C12.9277 25.4844 12.5371 25.5918 12.0996 25.5918C11.7051 25.5918 11.3438 25.5 11.0156 25.3164C10.6875 25.1367 10.4258 24.8887 10.2305 24.5723C10.0312 24.2598 9.93164 23.9062 9.93164 23.5117C9.93164 23.0938 10.0293 22.7363 10.2246 22.4395C10.416 22.1426 10.6543 21.9062 10.9395 21.7305C11.0332 21.6719 11.1328 21.6426 11.2383 21.6426C11.3945 21.6426 11.5254 21.6992 11.6309 21.8125C11.7402 21.9258 11.7949 22.0625 11.7949 22.2227C11.7949 22.4102 11.707 22.5547 11.5312 22.6562C11.3984 22.7344 11.2832 22.8496 11.1855 23.002C11.0918 23.1543 11.0449 23.3184 11.0449 23.4941C11.0449 23.7637 11.1445 23.9922 11.3438 24.1797C11.5469 24.3711 11.793 24.4668 12.082 24.4668ZM18.709 18.7832C18.709 18.4512 18.6504 18.1309 18.5332 17.8223C18.4199 17.5098 18.25 17.2539 18.0234 17.0547C17.7969 16.8516 17.5137 16.75 17.1738 16.75C16.877 16.75 16.6211 16.8535 16.4062 17.0605C16.1953 17.2637 16.0781 17.5039 16.0547 17.7812C16.043 17.9297 15.9785 18.0566 15.8613 18.1621C15.748 18.2676 15.6172 18.3203 15.4688 18.3203C15.3086 18.3203 15.1699 18.2637 15.0527 18.1504C14.9395 18.0332 14.8828 17.8945 14.8828 17.7344C14.8828 17.7266 14.8828 17.7168 14.8828 17.7051C14.8867 17.6934 14.8887 17.6836 14.8887 17.6758C14.9238 17.2969 15.0449 16.9492 15.252 16.6328C15.4629 16.3125 15.7344 16.0566 16.0664 15.8652C16.4023 15.6738 16.7734 15.5781 17.1797 15.5781C17.6094 15.5781 17.9902 15.668 18.3223 15.8477C18.6582 16.0273 18.9414 16.2695 19.1719 16.5742C19.4023 16.8789 19.5781 17.2227 19.6992 17.6055C19.8203 17.9844 19.8809 18.375 19.8809 18.7773C19.8809 19.1914 19.8203 19.5977 19.6992 19.9961C19.5781 20.3945 19.4004 20.7539 19.166 21.0742C18.9316 21.3945 18.6426 21.6504 18.2988 21.8418C17.9551 22.0293 17.5586 22.123 17.1094 22.123C16.6953 22.123 16.3203 22.0254 15.9844 21.8301C15.6484 21.6348 15.377 21.375 15.1699 21.0508C14.9668 20.7266 14.8535 20.3691 14.8301 19.9785V19.9375C14.8301 19.7773 14.8867 19.6406 15 19.5273C15.1172 19.4102 15.2559 19.3516 15.416 19.3516C15.5723 19.3516 15.707 19.4062 15.8203 19.5156C15.9375 19.6211 15.998 19.752 16.002 19.9082C16.0215 20.1895 16.1367 20.4336 16.3477 20.6406C16.5586 20.8477 16.8125 20.9512 17.1094 20.9512C17.4688 20.9512 17.7656 20.8438 18 20.6289C18.2383 20.4141 18.416 20.1406 18.5332 19.8086C18.6504 19.4727 18.709 19.1309 18.709 18.7832ZM28.9922 15.5898C29.1523 15.5898 29.291 15.6484 29.4082 15.7656C29.5254 15.8789 29.582 16.0176 29.5781 16.1816L29.5898 21.3789C29.5898 21.5391 29.5312 21.6777 29.4141 21.7949C29.3008 21.9082 29.1641 21.9648 29.0039 21.9648L21.3457 21.9824C21.1855 21.9824 21.0469 21.9258 20.9297 21.8125C20.8164 21.6953 20.7598 21.5566 20.7598 21.3965V19.5098C20.7598 18.791 20.8672 18.1367 21.082 17.5469C21.3008 16.9531 21.6387 16.4785 22.0957 16.123C22.5527 15.7676 23.1367 15.5898 23.8477 15.5898C24.3984 15.5898 24.9023 15.7305 25.3594 16.0117C25.8164 16.2891 26.1816 16.6641 26.4551 17.1367C26.7285 17.6055 26.8652 18.1289 26.8652 18.707C26.8652 18.8867 26.8477 19.0645 26.8125 19.2402C26.7812 19.4121 26.7188 19.5547 26.625 19.668C26.5352 19.7812 26.4004 19.8379 26.2207 19.8379L21.9316 19.8496V20.8105L28.418 20.793L28.4062 16.1758C28.4062 16.0156 28.4629 15.8789 28.5762 15.7656C28.6934 15.6484 28.832 15.5898 28.9922 15.5898ZM25.6875 18.666C25.6797 18.3184 25.5918 18 25.4238 17.7109C25.2598 17.4219 25.041 17.1914 24.7676 17.0195C24.4941 16.8477 24.1875 16.7617 23.8477 16.7617C23.4766 16.7617 23.1562 16.8516 22.8867 17.0312C22.6211 17.207 22.4102 17.4414 22.2539 17.7344C22.1016 18.0234 22.0059 18.3379 21.9668 18.6777L25.6875 18.666ZM30.4629 18.959C30.4629 18.4824 30.5547 18.0391 30.7383 17.6289C30.9219 17.2188 31.1758 16.8613 31.5 16.5566C31.8242 16.248 32.1953 16.0078 32.6133 15.8359C33.0352 15.6641 33.4805 15.5781 33.9492 15.5781C34.418 15.5781 34.8613 15.6641 35.2793 15.8359C35.6973 16.0078 36.0684 16.248 36.3926 16.5566C36.7168 16.8652 36.9707 17.2246 37.1543 17.6348C37.3379 18.041 37.4297 18.4805 37.4297 18.9531C37.4297 19.3047 37.3633 19.6641 37.2305 20.0312C37.0977 20.3945 36.9141 20.7305 36.6797 21.0391C36.4492 21.3477 36.1816 21.5957 35.877 21.7832C35.5762 21.9707 35.2539 22.0645 34.9102 22.0645C34.75 22.0645 34.6113 22.0078 34.4941 21.8945C34.3809 21.7773 34.3242 21.6387 34.3242 21.4785C34.3242 21.3535 34.3672 21.2363 34.4531 21.127C34.5391 21.0137 34.6426 20.9414 34.7637 20.9102C35.166 20.8008 35.5156 20.5703 35.8125 20.2188C36.1094 19.8672 36.2578 19.4434 36.2578 18.9473C36.2578 18.5371 36.1504 18.166 35.9355 17.834C35.7207 17.502 35.4375 17.2383 35.0859 17.043C34.7383 16.8477 34.3594 16.75 33.9492 16.75C33.5391 16.75 33.1582 16.8477 32.8066 17.043C32.4551 17.2383 32.1719 17.5039 31.957 17.8398C31.7422 18.1719 31.6348 18.543 31.6348 18.9531C31.6348 19.4492 31.7812 19.8711 32.0742 20.2188C32.3672 20.5664 32.709 20.7969 33.0996 20.9102C33.2207 20.9414 33.3223 21.0137 33.4043 21.127C33.4902 21.2363 33.5332 21.3535 33.5332 21.4785C33.5332 21.6387 33.4746 21.7773 33.3574 21.8945C33.2441 22.0078 33.1074 22.0645 32.9473 22.0645C32.9238 22.0645 32.8945 22.0605 32.8594 22.0527C32.8281 22.0449 32.8008 22.0391 32.7773 22.0352C32.3672 21.9141 31.9863 21.7109 31.6348 21.4258C31.2832 21.1406 31 20.7891 30.7852 20.3711C30.5703 19.9492 30.4629 19.4785 30.4629 18.959ZM34.5996 14.9805C34.7051 14.6953 34.8652 14.4316 35.0801 14.1895C35.2949 13.9473 35.5547 13.752 35.8594 13.6035C36.1641 13.4512 36.502 13.375 36.873 13.375C37.4707 13.375 37.9551 13.5176 38.3262 13.8027C38.7012 14.0879 38.9766 14.4727 39.1523 14.957C39.3281 15.4375 39.416 15.9766 39.416 16.5742L39.4277 21.5488V21.5547C39.4277 21.7148 39.3691 21.8535 39.252 21.9707C39.1387 22.084 39.002 22.1406 38.8418 22.1406C38.6816 22.1406 38.543 22.084 38.4258 21.9707C38.3125 21.8535 38.2559 21.7148 38.2559 21.5547V21.5488L38.2441 16.5742C38.2441 16.207 38.2051 15.8711 38.127 15.5664C38.0488 15.2578 37.9121 15.0117 37.7168 14.8281C37.5176 14.6445 37.2402 14.5527 36.8848 14.5527C36.5918 14.5527 36.3418 14.6367 36.1348 14.8047C35.9238 14.9688 35.7773 15.1621 35.6953 15.3848C35.6562 15.4941 35.584 15.5879 35.4785 15.666C35.3691 15.7402 35.2578 15.7773 35.1445 15.7773C34.9844 15.7773 34.8477 15.7207 34.7344 15.6074C34.6172 15.4902 34.5586 15.3516 34.5586 15.1914C34.5586 15.1172 34.5723 15.0469 34.5996 14.9805Z" fill="white"/>
</svg>
