<svg width="62" height="24" viewBox="0 0 62 24" fill="none" xmlns="http://www.w3.org/2000/svg">
<path d="M3.264 8.988C2.616 8.988 2.068 8.804 1.62 8.436C1.172 8.068 0.832003 7.552 0.600003 6.888C0.368003 6.216 0.252003 5.424 0.252003 4.512C0.252003 3.632 0.388003 2.864 0.660003 2.208C0.932003 1.544 1.304 1.032 1.776 0.671997C2.256 0.303997 2.804 0.119997 3.42 0.119997C3.732 0.119997 4.016 0.151997 4.272 0.215997C4.528 0.271997 4.752 0.347997 4.944 0.443997C5.048 0.499997 5.1 0.583997 5.1 0.695997L5.136 2.52C5.136 2.656 5.088 2.724 4.992 2.724C4.904 2.724 4.848 2.672 4.824 2.568L4.728 2.208C4.552 1.544 4.352 1.088 4.128 0.839997C3.904 0.591997 3.596 0.467997 3.204 0.467997C2.62 0.467997 2.136 0.815997 1.752 1.512C1.376 2.2 1.188 3.2 1.188 4.512C1.188 5.864 1.38 6.896 1.764 7.608C2.156 8.312 2.656 8.664 3.264 8.664C3.592 8.664 3.84 8.592 4.008 8.448C4.176 8.304 4.26 8.036 4.26 7.644V5.016C4.26 4.848 4.232 4.732 4.176 4.668C4.128 4.604 4.02 4.564 3.852 4.548L3.384 4.5C3.28 4.492 3.228 4.444 3.228 4.356C3.228 4.268 3.288 4.224 3.408 4.224H5.604C5.724 4.224 5.784 4.272 5.784 4.368C5.784 4.44 5.74 4.484 5.652 4.5L5.472 4.524C5.296 4.548 5.192 4.596 5.16 4.668C5.128 4.74 5.112 4.86 5.112 5.028V8.28C5.112 8.368 5.088 8.44 5.04 8.496C4.992 8.544 4.908 8.6 4.788 8.664C4.596 8.76 4.376 8.836 4.128 8.892C3.88 8.956 3.592 8.988 3.264 8.988ZM7.87782 3.528C8.20582 2.968 8.60182 2.688 9.06582 2.688C9.32982 2.688 9.52582 2.768 9.65382 2.928C9.78182 3.08 9.84582 3.252 9.84582 3.444C9.84582 3.596 9.80582 3.72 9.72582 3.816C9.65382 3.912 9.53782 3.96 9.37782 3.96C9.24982 3.96 9.15382 3.932 9.08982 3.876C9.03382 3.812 8.98582 3.74 8.94582 3.66C8.91382 3.58 8.87382 3.512 8.82582 3.456C8.77782 3.392 8.69782 3.36 8.58582 3.36C8.44182 3.36 8.30582 3.448 8.17782 3.624C8.04982 3.792 7.94182 4.02 7.85382 4.308C7.77382 4.596 7.73382 4.924 7.73382 5.292V8.076C7.73382 8.244 7.75782 8.364 7.80582 8.436C7.86182 8.508 7.97382 8.552 8.14182 8.568L8.46582 8.604C8.55382 8.62 8.59782 8.664 8.59782 8.736C8.59782 8.832 8.53782 8.88 8.41782 8.88H6.38982C6.26982 8.88 6.20982 8.836 6.20982 8.748C6.20982 8.676 6.26182 8.628 6.36582 8.604L6.50982 8.58C6.67782 8.548 6.78582 8.5 6.83382 8.436C6.88982 8.364 6.91782 8.244 6.91782 8.076V4.044C6.91782 3.9 6.89382 3.804 6.84582 3.756C6.80582 3.7 6.72982 3.664 6.61782 3.648L6.36582 3.612C6.26182 3.604 6.20982 3.56 6.20982 3.48C6.20982 3.416 6.27382 3.372 6.40182 3.348C6.64982 3.308 6.83782 3.244 6.96582 3.156C7.10182 3.068 7.24182 2.96 7.38582 2.832C7.45782 2.76 7.51782 2.724 7.56582 2.724C7.63782 2.724 7.67382 2.772 7.67382 2.868V3.516C7.67382 3.572 7.69782 3.608 7.74582 3.624C7.79382 3.632 7.83782 3.6 7.87782 3.528ZM11.0792 8.988C10.7432 8.988 10.4672 8.884 10.2512 8.676C10.0352 8.46 9.92719 8.176 9.92719 7.824C9.92719 7.48 10.0352 7.156 10.2512 6.852C10.4672 6.54 10.7632 6.26 11.1392 6.012C11.5152 5.764 11.9432 5.564 12.4232 5.412C12.5272 5.38 12.5792 5.312 12.5792 5.208V4.116C12.5792 3.732 12.5192 3.46 12.3992 3.3C12.2792 3.132 12.1152 3.048 11.9072 3.048C11.7072 3.048 11.5232 3.14 11.3552 3.324C11.1952 3.5 11.0792 3.8 11.0072 4.224C10.9672 4.48 10.8792 4.668 10.7432 4.788C10.6152 4.9 10.4832 4.956 10.3472 4.956C10.1232 4.956 10.0112 4.844 10.0112 4.62C10.0112 4.388 10.0752 4.16 10.2032 3.936C10.3392 3.704 10.5152 3.496 10.7312 3.312C10.9472 3.12 11.1832 2.968 11.4392 2.856C11.6952 2.744 11.9512 2.688 12.2072 2.688C12.9992 2.688 13.3952 3.148 13.3952 4.068V7.74C13.3952 8.076 13.4792 8.244 13.6472 8.244C13.7512 8.244 13.8472 8.176 13.9352 8.04C14.0232 7.896 14.0672 7.656 14.0672 7.32C14.0672 7.192 14.1192 7.128 14.2232 7.128C14.3192 7.128 14.3672 7.196 14.3672 7.332C14.3672 7.916 14.2632 8.34 14.0552 8.604C13.8552 8.86 13.6272 8.988 13.3712 8.988C13.1792 8.988 13.0272 8.912 12.9152 8.76C12.8032 8.6 12.7272 8.412 12.6872 8.196C12.6792 8.116 12.6432 8.076 12.5792 8.076C12.5232 8.068 12.4672 8.104 12.4112 8.184C12.2192 8.448 12.0232 8.648 11.8232 8.784C11.6232 8.92 11.3752 8.988 11.0792 8.988ZM11.4032 8.436C11.6112 8.436 11.8032 8.364 11.9792 8.22C12.1552 8.068 12.2992 7.868 12.4112 7.62C12.5232 7.372 12.5792 7.092 12.5792 6.78V5.904C12.5792 5.752 12.4952 5.708 12.3272 5.772C11.8392 5.948 11.4592 6.192 11.1872 6.504C10.9232 6.808 10.7912 7.176 10.7912 7.608C10.7912 8.16 10.9952 8.436 11.4032 8.436ZM14.7922 8.88C14.6722 8.88 14.6122 8.836 14.6122 8.748C14.6122 8.676 14.6642 8.628 14.7682 8.604L14.9122 8.58C15.0802 8.548 15.1882 8.5 15.2362 8.436C15.2922 8.364 15.3202 8.244 15.3202 8.076V4.044C15.3202 3.9 15.2962 3.804 15.2482 3.756C15.2082 3.7 15.1322 3.664 15.0202 3.648L14.7682 3.612C14.6642 3.604 14.6122 3.56 14.6122 3.48C14.6122 3.416 14.6762 3.372 14.8042 3.348C15.0522 3.308 15.2402 3.244 15.3682 3.156C15.5042 3.068 15.6442 2.96 15.7882 2.832C15.8602 2.76 15.9202 2.724 15.9682 2.724C16.0402 2.724 16.0762 2.772 16.0762 2.868V3.408C16.0762 3.48 16.1002 3.528 16.1482 3.552C16.2042 3.568 16.2642 3.544 16.3282 3.48C16.6482 3.176 16.9282 2.968 17.1682 2.856C17.4162 2.744 17.6762 2.688 17.9482 2.688C18.3082 2.688 18.5962 2.816 18.8122 3.072C19.0282 3.32 19.1362 3.688 19.1362 4.176V8.076C19.1362 8.244 19.1602 8.364 19.2082 8.436C19.2642 8.5 19.3762 8.544 19.5442 8.568L19.8082 8.604C19.8962 8.62 19.9402 8.668 19.9402 8.748C19.9402 8.836 19.8922 8.88 19.7962 8.88H17.7802C17.6682 8.88 17.6122 8.836 17.6122 8.748C17.6122 8.668 17.6562 8.62 17.7442 8.604L17.9122 8.58C18.0802 8.556 18.1882 8.508 18.2362 8.436C18.2922 8.364 18.3202 8.244 18.3202 8.076V4.308C18.3202 3.916 18.2482 3.64 18.1042 3.48C17.9602 3.32 17.7562 3.24 17.4922 3.24C17.2362 3.24 17.0042 3.316 16.7962 3.468C16.5962 3.612 16.4362 3.808 16.3162 4.056C16.1962 4.296 16.1362 4.564 16.1362 4.86V8.076C16.1362 8.244 16.1602 8.364 16.2082 8.436C16.2642 8.508 16.3762 8.552 16.5442 8.568L16.8682 8.604C16.9562 8.62 17.0002 8.664 17.0002 8.736C17.0002 8.832 16.9402 8.88 16.8202 8.88H14.7922ZM21.8329 8.988C21.5529 8.988 21.3209 8.892 21.1369 8.7C20.9609 8.5 20.8729 8.176 20.8729 7.728V3.24C20.8729 3.144 20.8249 3.096 20.7289 3.096H20.3809C20.2529 3.096 20.1889 3.048 20.1889 2.952C20.1889 2.888 20.2249 2.832 20.2969 2.784C20.5609 2.6 20.7729 2.404 20.9329 2.196C21.0929 1.98 21.2329 1.688 21.3529 1.32C21.4089 1.152 21.4769 1.068 21.5569 1.068C21.6449 1.068 21.6889 1.132 21.6889 1.26V2.592C21.6889 2.704 21.7449 2.76 21.8569 2.76H22.6369C22.7649 2.76 22.8289 2.816 22.8289 2.928C22.8289 3.04 22.7649 3.096 22.6369 3.096H21.8569C21.7449 3.096 21.6889 3.152 21.6889 3.264V7.74C21.6889 7.916 21.7169 8.056 21.7729 8.16C21.8289 8.256 21.9329 8.304 22.0849 8.304C22.2529 8.304 22.3889 8.22 22.4929 8.052C22.6049 7.884 22.6769 7.612 22.7089 7.236C22.7249 7.124 22.7769 7.068 22.8649 7.068C22.9609 7.068 23.0089 7.128 23.0089 7.248C22.9849 7.864 22.8569 8.308 22.6249 8.58C22.4009 8.852 22.1369 8.988 21.8329 8.988ZM23.4983 8.88C23.4023 8.88 23.3543 8.836 23.3543 8.748C23.3543 8.668 23.3983 8.62 23.4863 8.604L23.6543 8.58C23.8223 8.556 23.9303 8.508 23.9783 8.436C24.0343 8.364 24.0623 8.244 24.0623 8.076V1.2C24.0623 1.056 24.0383 0.959997 23.9903 0.911997C23.9503 0.855997 23.8743 0.819997 23.7623 0.803997L23.5103 0.767997C23.4223 0.751997 23.3783 0.703997 23.3783 0.623997C23.3783 0.543997 23.4223 0.495997 23.5103 0.479997C23.7343 0.431997 23.9223 0.375997 24.0743 0.311997C24.2263 0.247997 24.3543 0.183997 24.4583 0.119997C24.5863 0.0399971 24.6823 -2.86102e-06 24.7463 -2.86102e-06C24.8343 -2.86102e-06 24.8783 0.063997 24.8783 0.191997V3.372C24.8783 3.444 24.9023 3.488 24.9503 3.504C24.9983 3.512 25.0583 3.484 25.1303 3.42C25.4343 3.14 25.7023 2.948 25.9343 2.844C26.1663 2.74 26.4103 2.688 26.6663 2.688C27.0423 2.688 27.3383 2.816 27.5543 3.072C27.7703 3.32 27.8783 3.688 27.8783 4.176V8.076C27.8783 8.244 27.9023 8.364 27.9503 8.436C28.0063 8.5 28.1183 8.544 28.2863 8.568L28.5503 8.604C28.6383 8.62 28.6823 8.668 28.6823 8.748C28.6823 8.836 28.6343 8.88 28.5383 8.88H26.5223C26.4103 8.88 26.3543 8.836 26.3543 8.748C26.3543 8.668 26.3983 8.62 26.4863 8.604L26.6543 8.58C26.8223 8.556 26.9303 8.508 26.9783 8.436C27.0343 8.364 27.0623 8.244 27.0623 8.076V4.308C27.0623 3.916 26.9903 3.64 26.8463 3.48C26.7023 3.32 26.4983 3.24 26.2343 3.24C25.9783 3.24 25.7463 3.316 25.5383 3.468C25.3383 3.612 25.1783 3.808 25.0583 4.056C24.9383 4.296 24.8783 4.564 24.8783 4.86V8.076C24.8783 8.244 24.9023 8.364 24.9503 8.436C25.0063 8.508 25.1183 8.552 25.2863 8.568L25.6103 8.604C25.6983 8.62 25.7423 8.668 25.7423 8.748C25.7423 8.836 25.6943 8.88 25.5983 8.88H23.4983ZM30.2511 8.988C29.9151 8.988 29.6391 8.884 29.4231 8.676C29.2071 8.46 29.0991 8.176 29.0991 7.824C29.0991 7.48 29.2071 7.156 29.4231 6.852C29.6391 6.54 29.9351 6.26 30.3111 6.012C30.6871 5.764 31.1151 5.564 31.5951 5.412C31.6991 5.38 31.7511 5.312 31.7511 5.208V4.116C31.7511 3.732 31.6911 3.46 31.5711 3.3C31.4511 3.132 31.2871 3.048 31.0791 3.048C30.8791 3.048 30.6951 3.14 30.5271 3.324C30.3671 3.5 30.2511 3.8 30.1791 4.224C30.1391 4.48 30.0511 4.668 29.9151 4.788C29.7871 4.9 29.6551 4.956 29.5191 4.956C29.2951 4.956 29.1831 4.844 29.1831 4.62C29.1831 4.388 29.2471 4.16 29.3751 3.936C29.5111 3.704 29.6871 3.496 29.9031 3.312C30.1191 3.12 30.3551 2.968 30.6111 2.856C30.8671 2.744 31.1231 2.688 31.3791 2.688C32.1711 2.688 32.5671 3.148 32.5671 4.068V7.74C32.5671 8.076 32.6511 8.244 32.8191 8.244C32.9231 8.244 33.0191 8.176 33.1071 8.04C33.1951 7.896 33.2391 7.656 33.2391 7.32C33.2391 7.192 33.2911 7.128 33.3951 7.128C33.4911 7.128 33.5391 7.196 33.5391 7.332C33.5391 7.916 33.4351 8.34 33.2271 8.604C33.0271 8.86 32.7991 8.988 32.5431 8.988C32.3511 8.988 32.1991 8.912 32.0871 8.76C31.9751 8.6 31.8991 8.412 31.8591 8.196C31.8511 8.116 31.8151 8.076 31.7511 8.076C31.6951 8.068 31.6391 8.104 31.5831 8.184C31.3911 8.448 31.1951 8.648 30.9951 8.784C30.7951 8.92 30.5471 8.988 30.2511 8.988ZM30.5751 8.436C30.7831 8.436 30.9751 8.364 31.1511 8.22C31.3271 8.068 31.4711 7.868 31.5831 7.62C31.6951 7.372 31.7511 7.092 31.7511 6.78V5.904C31.7511 5.752 31.6671 5.708 31.4991 5.772C31.0111 5.948 30.6311 6.192 30.3591 6.504C30.0951 6.808 29.9631 7.176 29.9631 7.608C29.9631 8.16 30.1671 8.436 30.5751 8.436ZM33.928 11.34C33.808 11.34 33.748 11.296 33.748 11.208C33.748 11.12 33.8 11.072 33.904 11.064L34.072 11.04C34.24 11.016 34.348 10.968 34.396 10.896C34.452 10.824 34.48 10.704 34.48 10.536V4.044C34.48 3.9 34.456 3.804 34.408 3.756C34.368 3.7 34.292 3.664 34.18 3.648L33.928 3.612C33.824 3.604 33.772 3.56 33.772 3.48C33.772 3.416 33.836 3.372 33.964 3.348C34.212 3.308 34.4 3.244 34.528 3.156C34.664 3.068 34.804 2.96 34.948 2.832C35.02 2.76 35.08 2.724 35.128 2.724C35.2 2.724 35.236 2.772 35.236 2.868V3.24C35.236 3.296 35.26 3.336 35.308 3.36C35.356 3.376 35.412 3.352 35.476 3.288L35.608 3.156C35.768 2.996 35.932 2.88 36.1 2.808C36.268 2.728 36.46 2.688 36.676 2.688C37.044 2.688 37.368 2.812 37.648 3.06C37.936 3.3 38.16 3.636 38.32 4.068C38.488 4.5 38.572 5.008 38.572 5.592C38.572 6.256 38.468 6.844 38.26 7.356C38.052 7.868 37.764 8.268 37.396 8.556C37.036 8.844 36.62 8.988 36.148 8.988C35.908 8.988 35.696 8.944 35.512 8.856C35.368 8.792 35.296 8.836 35.296 8.988V10.536C35.296 10.704 35.32 10.816 35.368 10.872C35.424 10.936 35.536 10.98 35.704 11.004L36.148 11.064C36.236 11.08 36.28 11.124 36.28 11.196C36.28 11.292 36.22 11.34 36.1 11.34H33.928ZM36.184 8.688C36.632 8.688 36.992 8.424 37.264 7.896C37.544 7.368 37.684 6.656 37.684 5.76C37.684 4.936 37.564 4.308 37.324 3.876C37.084 3.444 36.744 3.228 36.304 3.228C36.032 3.228 35.796 3.34 35.596 3.564C35.396 3.788 35.296 4.1 35.296 4.5V7.524C35.296 7.884 35.376 8.168 35.536 8.376C35.704 8.584 35.92 8.688 36.184 8.688ZM40.9881 8.988C40.7881 8.988 40.5961 8.944 40.4121 8.856C40.2281 8.768 40.0761 8.628 39.9561 8.436C39.8361 8.244 39.7761 7.988 39.7761 7.668V3.492C39.7761 3.348 39.7521 3.248 39.7041 3.192C39.6641 3.136 39.5881 3.104 39.4761 3.096L39.2721 3.072C39.1361 3.056 39.0681 3.004 39.0681 2.916C39.0681 2.812 39.1441 2.76 39.2961 2.76H40.4121C40.5321 2.76 40.5921 2.82 40.5921 2.94V7.416C40.5921 7.784 40.6601 8.048 40.7961 8.208C40.9401 8.36 41.1361 8.436 41.3841 8.436C41.6321 8.436 41.8521 8.368 42.0441 8.232C42.2361 8.088 42.3881 7.9 42.5001 7.668C42.6201 7.428 42.6801 7.168 42.6801 6.888V3.492C42.6801 3.348 42.6561 3.248 42.6081 3.192C42.5681 3.136 42.4921 3.104 42.3801 3.096L42.1761 3.072C42.0401 3.056 41.9721 3.004 41.9721 2.916C41.9721 2.812 42.0481 2.76 42.2001 2.76H43.3161C43.4361 2.76 43.4961 2.82 43.4961 2.94V7.596C43.4961 7.74 43.5161 7.84 43.5561 7.896C43.6041 7.944 43.6841 7.976 43.7961 7.992L44.0481 8.028C44.1521 8.036 44.2041 8.076 44.2041 8.148C44.2041 8.22 44.1401 8.268 44.0121 8.292C43.7641 8.324 43.5641 8.388 43.4121 8.484C43.2681 8.58 43.1401 8.696 43.0281 8.832C42.9561 8.904 42.8961 8.94 42.8481 8.94C42.7761 8.94 42.7401 8.892 42.7401 8.796V8.244C42.7401 8.18 42.7161 8.144 42.6681 8.136C42.6281 8.12 42.5841 8.136 42.5361 8.184C42.2401 8.48 41.9761 8.688 41.7441 8.808C41.5201 8.928 41.2681 8.988 40.9881 8.988ZM46.2333 3.528C46.5613 2.968 46.9573 2.688 47.4213 2.688C47.6853 2.688 47.8813 2.768 48.0093 2.928C48.1373 3.08 48.2013 3.252 48.2013 3.444C48.2013 3.596 48.1613 3.72 48.0813 3.816C48.0093 3.912 47.8933 3.96 47.7333 3.96C47.6053 3.96 47.5093 3.932 47.4453 3.876C47.3893 3.812 47.3413 3.74 47.3013 3.66C47.2693 3.58 47.2293 3.512 47.1813 3.456C47.1333 3.392 47.0533 3.36 46.9413 3.36C46.7973 3.36 46.6613 3.448 46.5333 3.624C46.4053 3.792 46.2973 4.02 46.2093 4.308C46.1293 4.596 46.0893 4.924 46.0893 5.292V8.076C46.0893 8.244 46.1133 8.364 46.1613 8.436C46.2173 8.508 46.3293 8.552 46.4973 8.568L46.8213 8.604C46.9093 8.62 46.9533 8.664 46.9533 8.736C46.9533 8.832 46.8933 8.88 46.7733 8.88H44.7453C44.6253 8.88 44.5653 8.836 44.5653 8.748C44.5653 8.676 44.6173 8.628 44.7213 8.604L44.8653 8.58C45.0333 8.548 45.1413 8.5 45.1893 8.436C45.2453 8.364 45.2733 8.244 45.2733 8.076V4.044C45.2733 3.9 45.2493 3.804 45.2013 3.756C45.1613 3.7 45.0853 3.664 44.9733 3.648L44.7213 3.612C44.6173 3.604 44.5653 3.56 44.5653 3.48C44.5653 3.416 44.6293 3.372 44.7573 3.348C45.0053 3.308 45.1933 3.244 45.3213 3.156C45.4573 3.068 45.5973 2.96 45.7413 2.832C45.8133 2.76 45.8733 2.724 45.9213 2.724C45.9933 2.724 46.0293 2.772 46.0293 2.868V3.516C46.0293 3.572 46.0533 3.608 46.1013 3.624C46.1493 3.632 46.1933 3.6 46.2333 3.528ZM49.4347 8.988C49.0987 8.988 48.8227 8.884 48.6067 8.676C48.3907 8.46 48.2827 8.176 48.2827 7.824C48.2827 7.48 48.3907 7.156 48.6067 6.852C48.8227 6.54 49.1187 6.26 49.4947 6.012C49.8707 5.764 50.2987 5.564 50.7787 5.412C50.8827 5.38 50.9347 5.312 50.9347 5.208V4.116C50.9347 3.732 50.8747 3.46 50.7547 3.3C50.6347 3.132 50.4707 3.048 50.2627 3.048C50.0627 3.048 49.8787 3.14 49.7107 3.324C49.5507 3.5 49.4347 3.8 49.3627 4.224C49.3227 4.48 49.2347 4.668 49.0987 4.788C48.9707 4.9 48.8387 4.956 48.7027 4.956C48.4787 4.956 48.3667 4.844 48.3667 4.62C48.3667 4.388 48.4307 4.16 48.5587 3.936C48.6947 3.704 48.8707 3.496 49.0867 3.312C49.3027 3.12 49.5387 2.968 49.7947 2.856C50.0507 2.744 50.3067 2.688 50.5627 2.688C51.3547 2.688 51.7507 3.148 51.7507 4.068V7.74C51.7507 8.076 51.8347 8.244 52.0027 8.244C52.1067 8.244 52.2027 8.176 52.2907 8.04C52.3787 7.896 52.4227 7.656 52.4227 7.32C52.4227 7.192 52.4747 7.128 52.5787 7.128C52.6747 7.128 52.7227 7.196 52.7227 7.332C52.7227 7.916 52.6187 8.34 52.4107 8.604C52.2107 8.86 51.9827 8.988 51.7267 8.988C51.5347 8.988 51.3827 8.912 51.2707 8.76C51.1587 8.6 51.0827 8.412 51.0427 8.196C51.0347 8.116 50.9987 8.076 50.9347 8.076C50.8787 8.068 50.8227 8.104 50.7667 8.184C50.5747 8.448 50.3787 8.648 50.1787 8.784C49.9787 8.92 49.7307 8.988 49.4347 8.988ZM49.7587 8.436C49.9667 8.436 50.1587 8.364 50.3347 8.22C50.5107 8.068 50.6547 7.868 50.7667 7.62C50.8787 7.372 50.9347 7.092 50.9347 6.78V5.904C50.9347 5.752 50.8507 5.708 50.6827 5.772C50.1947 5.948 49.8147 6.192 49.5427 6.504C49.2787 6.808 49.1467 7.176 49.1467 7.608C49.1467 8.16 49.3507 8.436 49.7587 8.436ZM0.180003 20.88C0.0600032 20.88 3.18885e-06 20.836 3.18885e-06 20.748C3.18885e-06 20.676 0.0520032 20.628 0.156003 20.604L0.432003 20.556C0.600003 20.524 0.708003 20.48 0.756003 20.424C0.812003 20.368 0.840003 20.256 0.840003 20.088V13.032C0.840003 12.864 0.812003 12.752 0.756003 12.696C0.708003 12.64 0.600003 12.596 0.432003 12.564L0.156003 12.516C0.0520032 12.492 3.18885e-06 12.444 3.18885e-06 12.372C3.18885e-06 12.284 0.0600032 12.24 0.180003 12.24H2.352C2.472 12.24 2.532 12.284 2.532 12.372C2.532 12.444 2.48 12.492 2.376 12.516L2.1 12.564C1.932 12.596 1.82 12.64 1.764 12.696C1.716 12.752 1.692 12.864 1.692 13.032V20.088C1.692 20.256 1.716 20.368 1.764 20.424C1.82 20.48 1.932 20.524 2.1 20.556L2.376 20.604C2.48 20.628 2.532 20.676 2.532 20.748C2.532 20.836 2.472 20.88 2.352 20.88H0.180003ZM3.12028 20.88C3.00028 20.88 2.94028 20.836 2.94028 20.748C2.94028 20.676 2.99228 20.628 3.09628 20.604L3.24028 20.58C3.40828 20.548 3.51628 20.5 3.56428 20.436C3.62028 20.364 3.64828 20.244 3.64828 20.076V16.044C3.64828 15.9 3.62428 15.804 3.57628 15.756C3.53628 15.7 3.46028 15.664 3.34828 15.648L3.09628 15.612C2.99228 15.604 2.94028 15.56 2.94028 15.48C2.94028 15.416 3.00428 15.372 3.13228 15.348C3.38028 15.308 3.56828 15.244 3.69628 15.156C3.83228 15.068 3.97228 14.96 4.11628 14.832C4.18828 14.76 4.24828 14.724 4.29628 14.724C4.36828 14.724 4.40428 14.772 4.40428 14.868V15.408C4.40428 15.48 4.42828 15.528 4.47628 15.552C4.53228 15.568 4.59228 15.544 4.65628 15.48C4.97628 15.176 5.25628 14.968 5.49628 14.856C5.74428 14.744 6.00428 14.688 6.27628 14.688C6.63628 14.688 6.92428 14.816 7.14028 15.072C7.35628 15.32 7.46428 15.688 7.46428 16.176V20.076C7.46428 20.244 7.48828 20.364 7.53628 20.436C7.59228 20.5 7.70428 20.544 7.87228 20.568L8.13628 20.604C8.22428 20.62 8.26828 20.668 8.26828 20.748C8.26828 20.836 8.22028 20.88 8.12428 20.88H6.10828C5.99628 20.88 5.94028 20.836 5.94028 20.748C5.94028 20.668 5.98428 20.62 6.07228 20.604L6.24028 20.58C6.40828 20.556 6.51628 20.508 6.56428 20.436C6.62028 20.364 6.64828 20.244 6.64828 20.076V16.308C6.64828 15.916 6.57628 15.64 6.43228 15.48C6.28828 15.32 6.08428 15.24 5.82028 15.24C5.56428 15.24 5.33228 15.316 5.12428 15.468C4.92428 15.612 4.76428 15.808 4.64428 16.056C4.52428 16.296 4.46428 16.564 4.46428 16.86V20.076C4.46428 20.244 4.48828 20.364 4.53628 20.436C4.59228 20.508 4.70428 20.552 4.87228 20.568L5.19628 20.604C5.28428 20.62 5.32828 20.664 5.32828 20.736C5.32828 20.832 5.26828 20.88 5.14828 20.88H3.12028ZM8.733 20.88C8.613 20.88 8.553 20.836 8.553 20.748C8.553 20.66 8.605 20.612 8.709 20.604L8.949 20.58C9.149 20.564 9.277 20.52 9.333 20.448C9.389 20.368 9.417 20.244 9.417 20.076V15.384C9.417 15.192 9.321 15.096 9.129 15.096H8.853C8.757 15.096 8.709 15.056 8.709 14.976C8.709 14.896 8.757 14.852 8.853 14.844C9.229 14.804 9.417 14.64 9.417 14.352V14.28C9.417 13.864 9.497 13.476 9.657 13.116C9.825 12.756 10.073 12.464 10.401 12.24C10.729 12.016 11.133 11.904 11.613 11.904C12.101 11.904 12.493 12 12.789 12.192C13.085 12.384 13.233 12.608 13.233 12.864C13.233 13.016 13.193 13.14 13.113 13.236C13.041 13.324 12.921 13.368 12.753 13.368C12.585 13.368 12.461 13.312 12.381 13.2C12.301 13.088 12.225 12.96 12.153 12.816C12.089 12.664 12.001 12.532 11.889 12.42C11.777 12.308 11.605 12.252 11.373 12.252C11.173 12.252 10.985 12.296 10.809 12.384C10.641 12.472 10.501 12.628 10.389 12.852C10.285 13.076 10.233 13.392 10.233 13.8V14.616C10.233 14.712 10.281 14.76 10.377 14.76H12.921C13.113 14.76 13.209 14.856 13.209 15.048V20.076C13.209 20.244 13.233 20.364 13.281 20.436C13.329 20.508 13.421 20.552 13.557 20.568L13.857 20.604C13.945 20.62 13.989 20.664 13.989 20.736C13.989 20.832 13.929 20.88 13.809 20.88H11.805C11.685 20.88 11.625 20.836 11.625 20.748C11.625 20.676 11.677 20.628 11.781 20.604L11.925 20.58C12.125 20.548 12.253 20.5 12.309 20.436C12.365 20.364 12.393 20.244 12.393 20.076V15.264C12.393 15.152 12.337 15.096 12.225 15.096H10.377C10.281 15.096 10.233 15.144 10.233 15.24V20.076C10.233 20.244 10.257 20.364 10.305 20.436C10.353 20.508 10.445 20.552 10.581 20.568L10.881 20.604C10.969 20.62 11.013 20.664 11.013 20.736C11.013 20.832 10.953 20.88 10.833 20.88H8.733ZM14.4758 20.88C14.3558 20.88 14.2958 20.836 14.2958 20.748C14.2958 20.676 14.3478 20.628 14.4518 20.604L14.5958 20.58C14.7638 20.548 14.8718 20.5 14.9198 20.436C14.9758 20.364 15.0038 20.244 15.0038 20.076V16.044C15.0038 15.9 14.9798 15.804 14.9318 15.756C14.8918 15.7 14.8158 15.664 14.7038 15.648L14.4518 15.612C14.3478 15.604 14.2958 15.56 14.2958 15.48C14.2958 15.416 14.3598 15.372 14.4878 15.348C14.7358 15.308 14.9238 15.244 15.0518 15.156C15.1878 15.068 15.3278 14.96 15.4718 14.832C15.5438 14.76 15.6038 14.724 15.6518 14.724C15.7238 14.724 15.7598 14.772 15.7598 14.868V15.408C15.7598 15.48 15.7838 15.528 15.8318 15.552C15.8878 15.568 15.9478 15.544 16.0118 15.48C16.3318 15.176 16.6118 14.968 16.8518 14.856C17.0998 14.744 17.3598 14.688 17.6318 14.688C17.9918 14.688 18.2798 14.816 18.4958 15.072C18.7118 15.32 18.8198 15.688 18.8198 16.176V20.076C18.8198 20.244 18.8438 20.364 18.8918 20.436C18.9478 20.5 19.0598 20.544 19.2278 20.568L19.4918 20.604C19.5798 20.62 19.6238 20.668 19.6238 20.748C19.6238 20.836 19.5758 20.88 19.4798 20.88H17.4638C17.3518 20.88 17.2958 20.836 17.2958 20.748C17.2958 20.668 17.3398 20.62 17.4278 20.604L17.5958 20.58C17.7638 20.556 17.8718 20.508 17.9198 20.436C17.9758 20.364 18.0038 20.244 18.0038 20.076V16.308C18.0038 15.916 17.9318 15.64 17.7878 15.48C17.6438 15.32 17.4398 15.24 17.1758 15.24C16.9198 15.24 16.6878 15.316 16.4798 15.468C16.2798 15.612 16.1198 15.808 15.9998 16.056C15.8798 16.296 15.8198 16.564 15.8198 16.86V20.076C15.8198 20.244 15.8438 20.364 15.8918 20.436C15.9478 20.508 16.0598 20.552 16.2278 20.568L16.5518 20.604C16.6398 20.62 16.6838 20.664 16.6838 20.736C16.6838 20.832 16.6238 20.88 16.5038 20.88H14.4758ZM21.1205 13.62C20.9525 13.62 20.8085 13.56 20.6885 13.44C20.5765 13.32 20.5205 13.168 20.5205 12.984C20.5205 12.8 20.5765 12.652 20.6885 12.54C20.8085 12.42 20.9525 12.36 21.1205 12.36C21.2885 12.36 21.4285 12.42 21.5405 12.54C21.6525 12.652 21.7085 12.8 21.7085 12.984C21.7085 13.168 21.6525 13.32 21.5405 13.44C21.4285 13.56 21.2885 13.62 21.1205 13.62ZM20.1125 20.88C19.9925 20.88 19.9325 20.836 19.9325 20.748C19.9325 20.676 19.9845 20.628 20.0885 20.604L20.2325 20.58C20.4325 20.548 20.5605 20.5 20.6165 20.436C20.6725 20.364 20.7005 20.244 20.7005 20.076V16.044C20.7005 15.9 20.6765 15.804 20.6285 15.756C20.5885 15.7 20.5125 15.664 20.4005 15.648L20.1485 15.612C20.0445 15.604 19.9925 15.56 19.9925 15.48C19.9925 15.416 20.0565 15.372 20.1845 15.348C20.4325 15.308 20.6325 15.244 20.7845 15.156C20.9365 15.068 21.0845 14.96 21.2285 14.832C21.3005 14.76 21.3605 14.724 21.4085 14.724C21.4805 14.724 21.5165 14.772 21.5165 14.868V20.076C21.5165 20.244 21.5405 20.364 21.5885 20.436C21.6365 20.508 21.7285 20.552 21.8645 20.568L22.1645 20.604C22.2525 20.62 22.2965 20.664 22.2965 20.736C22.2965 20.832 22.2365 20.88 22.1165 20.88H20.1125ZM24.1883 20.988C23.9083 20.988 23.6763 20.892 23.4923 20.7C23.3163 20.5 23.2283 20.176 23.2283 19.728V15.24C23.2283 15.144 23.1803 15.096 23.0843 15.096H22.7363C22.6083 15.096 22.5443 15.048 22.5443 14.952C22.5443 14.888 22.5803 14.832 22.6523 14.784C22.9163 14.6 23.1283 14.404 23.2883 14.196C23.4483 13.98 23.5883 13.688 23.7083 13.32C23.7643 13.152 23.8323 13.068 23.9123 13.068C24.0003 13.068 24.0443 13.132 24.0443 13.26V14.592C24.0443 14.704 24.1003 14.76 24.2123 14.76H24.9923C25.1203 14.76 25.1843 14.816 25.1843 14.928C25.1843 15.04 25.1203 15.096 24.9923 15.096H24.2123C24.1003 15.096 24.0443 15.152 24.0443 15.264V19.74C24.0443 19.916 24.0723 20.056 24.1283 20.16C24.1843 20.256 24.2883 20.304 24.4403 20.304C24.6083 20.304 24.7443 20.22 24.8483 20.052C24.9603 19.884 25.0323 19.612 25.0643 19.236C25.0803 19.124 25.1323 19.068 25.2203 19.068C25.3163 19.068 25.3643 19.128 25.3643 19.248C25.3403 19.864 25.2123 20.308 24.9803 20.58C24.7563 20.852 24.4923 20.988 24.1883 20.988ZM27.8338 20.988C27.4498 20.988 27.1058 20.86 26.8018 20.604C26.4978 20.348 26.2538 19.988 26.0698 19.524C25.8938 19.052 25.8058 18.508 25.8058 17.892C25.8058 17.26 25.8978 16.704 26.0818 16.224C26.2658 15.744 26.5178 15.368 26.8378 15.096C27.1578 14.824 27.5138 14.688 27.9058 14.688C28.3778 14.688 28.7578 14.884 29.0458 15.276C29.3418 15.66 29.4898 16.288 29.4898 17.16C29.4898 17.424 29.3898 17.556 29.1898 17.556H26.9098C26.7498 17.556 26.6698 17.648 26.6698 17.832C26.6698 18.68 26.7938 19.316 27.0418 19.74C27.2898 20.164 27.6058 20.376 27.9898 20.376C28.2938 20.376 28.5418 20.268 28.7338 20.052C28.9258 19.836 29.0818 19.472 29.2018 18.96C29.2258 18.872 29.2778 18.828 29.3578 18.828C29.4538 18.828 29.4898 18.908 29.4658 19.068C29.3378 19.78 29.1338 20.28 28.8538 20.568C28.5738 20.848 28.2338 20.988 27.8338 20.988ZM26.8738 17.256H28.0858C28.4698 17.256 28.6618 17.056 28.6618 16.656C28.6618 16.136 28.5978 15.728 28.4698 15.432C28.3418 15.136 28.1498 14.988 27.8938 14.988C27.5818 14.988 27.3178 15.168 27.1018 15.528C26.8938 15.888 26.7578 16.4 26.6938 17.064C26.6778 17.192 26.7378 17.256 26.8738 17.256ZM35.3265 20.988C34.6785 20.988 34.1305 20.804 33.6825 20.436C33.2345 20.068 32.8945 19.552 32.6625 18.888C32.4305 18.216 32.3145 17.424 32.3145 16.512C32.3145 15.632 32.4505 14.864 32.7225 14.208C32.9945 13.544 33.3665 13.032 33.8385 12.672C34.3185 12.304 34.8665 12.12 35.4825 12.12C35.7945 12.12 36.0785 12.152 36.3345 12.216C36.5905 12.272 36.8145 12.348 37.0065 12.444C37.1105 12.5 37.1625 12.584 37.1625 12.696L37.1985 14.52C37.1985 14.656 37.1505 14.724 37.0545 14.724C36.9665 14.724 36.9105 14.672 36.8865 14.568L36.7905 14.208C36.6145 13.544 36.4145 13.088 36.1905 12.84C35.9665 12.592 35.6585 12.468 35.2665 12.468C34.6825 12.468 34.1985 12.816 33.8145 13.512C33.4385 14.2 33.2505 15.2 33.2505 16.512C33.2505 17.864 33.4425 18.896 33.8265 19.608C34.2185 20.312 34.7185 20.664 35.3265 20.664C35.6545 20.664 35.9025 20.592 36.0705 20.448C36.2385 20.304 36.3225 20.036 36.3225 19.644V17.016C36.3225 16.848 36.2945 16.732 36.2385 16.668C36.1905 16.604 36.0825 16.564 35.9145 16.548L35.4465 16.5C35.3425 16.492 35.2905 16.444 35.2905 16.356C35.2905 16.268 35.3505 16.224 35.4705 16.224H37.6665C37.7865 16.224 37.8465 16.272 37.8465 16.368C37.8465 16.44 37.8025 16.484 37.7145 16.5L37.5345 16.524C37.3585 16.548 37.2545 16.596 37.2225 16.668C37.1905 16.74 37.1745 16.86 37.1745 17.028V20.28C37.1745 20.368 37.1505 20.44 37.1025 20.496C37.0545 20.544 36.9705 20.6 36.8505 20.664C36.6585 20.76 36.4385 20.836 36.1905 20.892C35.9425 20.956 35.6545 20.988 35.3265 20.988ZM39.5323 20.988C39.1963 20.988 38.9203 20.884 38.7043 20.676C38.4883 20.46 38.3803 20.176 38.3803 19.824C38.3803 19.48 38.4883 19.156 38.7043 18.852C38.9203 18.54 39.2163 18.26 39.5923 18.012C39.9683 17.764 40.3963 17.564 40.8763 17.412C40.9803 17.38 41.0323 17.312 41.0323 17.208V16.116C41.0323 15.732 40.9723 15.46 40.8523 15.3C40.7323 15.132 40.5683 15.048 40.3603 15.048C40.1603 15.048 39.9763 15.14 39.8083 15.324C39.6483 15.5 39.5323 15.8 39.4603 16.224C39.4203 16.48 39.3323 16.668 39.1963 16.788C39.0683 16.9 38.9363 16.956 38.8003 16.956C38.5763 16.956 38.4643 16.844 38.4643 16.62C38.4643 16.388 38.5283 16.16 38.6563 15.936C38.7923 15.704 38.9683 15.496 39.1843 15.312C39.4003 15.12 39.6363 14.968 39.8923 14.856C40.1483 14.744 40.4043 14.688 40.6603 14.688C41.4523 14.688 41.8483 15.148 41.8483 16.068V19.74C41.8483 20.076 41.9323 20.244 42.1003 20.244C42.2043 20.244 42.3003 20.176 42.3883 20.04C42.4763 19.896 42.5203 19.656 42.5203 19.32C42.5203 19.192 42.5723 19.128 42.6763 19.128C42.7723 19.128 42.8203 19.196 42.8203 19.332C42.8203 19.916 42.7163 20.34 42.5083 20.604C42.3083 20.86 42.0803 20.988 41.8243 20.988C41.6323 20.988 41.4803 20.912 41.3683 20.76C41.2563 20.6 41.1803 20.412 41.1403 20.196C41.1323 20.116 41.0963 20.076 41.0323 20.076C40.9763 20.068 40.9203 20.104 40.8643 20.184C40.6723 20.448 40.4763 20.648 40.2763 20.784C40.0763 20.92 39.8283 20.988 39.5323 20.988ZM39.8563 20.436C40.0643 20.436 40.2563 20.364 40.4323 20.22C40.6083 20.068 40.7523 19.868 40.8643 19.62C40.9763 19.372 41.0323 19.092 41.0323 18.78V17.904C41.0323 17.752 40.9483 17.708 40.7803 17.772C40.2923 17.948 39.9123 18.192 39.6403 18.504C39.3763 18.808 39.2443 19.176 39.2443 19.608C39.2443 20.16 39.4483 20.436 39.8563 20.436ZM43.1253 20.88C43.0293 20.88 42.9813 20.836 42.9813 20.748C42.9813 20.668 43.0253 20.62 43.1133 20.604L43.2813 20.58C43.4493 20.556 43.5733 20.508 43.6533 20.436C43.7333 20.364 43.7733 20.244 43.7733 20.076V13.2C43.7733 13.056 43.7493 12.956 43.7013 12.9C43.6613 12.844 43.5853 12.812 43.4733 12.804L43.1973 12.768C43.1093 12.752 43.0653 12.704 43.0653 12.624C43.0653 12.544 43.1093 12.496 43.1973 12.48C43.4213 12.432 43.6133 12.376 43.7733 12.312C43.9333 12.248 44.0653 12.184 44.1693 12.12C44.2973 12.04 44.3933 12 44.4573 12C44.5453 12 44.5893 12.064 44.5893 12.192V20.076C44.5893 20.244 44.6133 20.364 44.6613 20.436C44.7173 20.5 44.8293 20.544 44.9973 20.568L45.2733 20.604C45.3613 20.62 45.4053 20.668 45.4053 20.748C45.4053 20.836 45.3573 20.88 45.2613 20.88H43.1253ZM45.762 20.88C45.666 20.88 45.618 20.836 45.618 20.748C45.618 20.668 45.662 20.62 45.75 20.604L45.918 20.58C46.086 20.556 46.21 20.508 46.29 20.436C46.37 20.364 46.41 20.244 46.41 20.076V13.2C46.41 13.056 46.386 12.956 46.338 12.9C46.298 12.844 46.222 12.812 46.11 12.804L45.834 12.768C45.746 12.752 45.702 12.704 45.702 12.624C45.702 12.544 45.746 12.496 45.834 12.48C46.058 12.432 46.25 12.376 46.41 12.312C46.57 12.248 46.702 12.184 46.806 12.12C46.934 12.04 47.03 12 47.094 12C47.182 12 47.226 12.064 47.226 12.192V20.076C47.226 20.244 47.25 20.364 47.298 20.436C47.354 20.5 47.466 20.544 47.634 20.568L47.91 20.604C47.998 20.62 48.042 20.668 48.042 20.748C48.042 20.836 47.994 20.88 47.898 20.88H45.762ZM50.4627 20.988C50.0787 20.988 49.7347 20.86 49.4307 20.604C49.1267 20.348 48.8827 19.988 48.6987 19.524C48.5227 19.052 48.4347 18.508 48.4347 17.892C48.4347 17.26 48.5267 16.704 48.7107 16.224C48.8947 15.744 49.1467 15.368 49.4667 15.096C49.7867 14.824 50.1427 14.688 50.5347 14.688C51.0067 14.688 51.3867 14.884 51.6747 15.276C51.9707 15.66 52.1187 16.288 52.1187 17.16C52.1187 17.424 52.0187 17.556 51.8187 17.556H49.5387C49.3787 17.556 49.2987 17.648 49.2987 17.832C49.2987 18.68 49.4227 19.316 49.6707 19.74C49.9187 20.164 50.2347 20.376 50.6187 20.376C50.9227 20.376 51.1707 20.268 51.3627 20.052C51.5547 19.836 51.7107 19.472 51.8307 18.96C51.8547 18.872 51.9067 18.828 51.9867 18.828C52.0827 18.828 52.1187 18.908 52.0947 19.068C51.9667 19.78 51.7627 20.28 51.4827 20.568C51.2027 20.848 50.8627 20.988 50.4627 20.988ZM49.5027 17.256H50.7147C51.0987 17.256 51.2907 17.056 51.2907 16.656C51.2907 16.136 51.2267 15.728 51.0987 15.432C50.9707 15.136 50.7787 14.988 50.5227 14.988C50.2107 14.988 49.9467 15.168 49.7307 15.528C49.5227 15.888 49.3867 16.4 49.3227 17.064C49.3067 17.192 49.3667 17.256 49.5027 17.256ZM54.2723 15.528C54.6003 14.968 54.9963 14.688 55.4603 14.688C55.7243 14.688 55.9203 14.768 56.0483 14.928C56.1763 15.08 56.2403 15.252 56.2403 15.444C56.2403 15.596 56.2003 15.72 56.1203 15.816C56.0483 15.912 55.9323 15.96 55.7723 15.96C55.6443 15.96 55.5483 15.932 55.4843 15.876C55.4283 15.812 55.3803 15.74 55.3403 15.66C55.3083 15.58 55.2683 15.512 55.2203 15.456C55.1723 15.392 55.0923 15.36 54.9803 15.36C54.8363 15.36 54.7003 15.448 54.5723 15.624C54.4443 15.792 54.3363 16.02 54.2483 16.308C54.1683 16.596 54.1283 16.924 54.1283 17.292V20.076C54.1283 20.244 54.1523 20.364 54.2003 20.436C54.2563 20.508 54.3683 20.552 54.5363 20.568L54.8603 20.604C54.9483 20.62 54.9923 20.664 54.9923 20.736C54.9923 20.832 54.9323 20.88 54.8123 20.88H52.7843C52.6643 20.88 52.6043 20.836 52.6043 20.748C52.6043 20.676 52.6563 20.628 52.7603 20.604L52.9043 20.58C53.0723 20.548 53.1803 20.5 53.2283 20.436C53.2843 20.364 53.3123 20.244 53.3123 20.076V16.044C53.3123 15.9 53.2883 15.804 53.2403 15.756C53.2003 15.7 53.1243 15.664 53.0123 15.648L52.7603 15.612C52.6563 15.604 52.6043 15.56 52.6043 15.48C52.6043 15.416 52.6683 15.372 52.7963 15.348C53.0443 15.308 53.2323 15.244 53.3603 15.156C53.4963 15.068 53.6363 14.96 53.7803 14.832C53.8523 14.76 53.9123 14.724 53.9603 14.724C54.0323 14.724 54.0683 14.772 54.0683 14.868V15.516C54.0683 15.572 54.0923 15.608 54.1403 15.624C54.1883 15.632 54.2323 15.6 54.2723 15.528ZM57.2407 23.34C57.0247 23.34 56.8527 23.264 56.7247 23.112C56.5967 22.968 56.5327 22.8 56.5327 22.608C56.5327 22.456 56.5767 22.328 56.6647 22.224C56.7527 22.12 56.8727 22.068 57.0247 22.068C57.1527 22.068 57.2447 22.096 57.3007 22.152C57.3567 22.208 57.3967 22.272 57.4207 22.344C57.4447 22.416 57.4687 22.48 57.4927 22.536C57.5167 22.592 57.5647 22.62 57.6367 22.62C57.7247 22.62 57.8047 22.556 57.8767 22.428C57.9487 22.308 58.0487 22.048 58.1767 21.648C58.2567 21.408 58.3047 21.2 58.3207 21.024C58.3447 20.848 58.3407 20.66 58.3087 20.46C58.2847 20.26 58.2247 20.016 58.1287 19.728L56.8207 15.564C56.7647 15.372 56.7087 15.248 56.6527 15.192C56.6047 15.136 56.5247 15.096 56.4127 15.072L56.2327 15.036C56.1287 15.012 56.0767 14.96 56.0767 14.88C56.0767 14.8 56.1327 14.76 56.2447 14.76H58.2247C58.3367 14.76 58.3927 14.8 58.3927 14.88C58.3927 14.968 58.3407 15.02 58.2367 15.036L58.0447 15.06C57.8527 15.084 57.7287 15.132 57.6727 15.204C57.6247 15.268 57.6287 15.388 57.6847 15.564L58.7407 19.08C58.7647 19.16 58.8007 19.2 58.8487 19.2C58.9047 19.2 58.9447 19.16 58.9687 19.08L59.9887 15.78C60.0527 15.564 60.0687 15.404 60.0367 15.3C60.0127 15.188 59.9007 15.116 59.7007 15.084L59.4487 15.036C59.3447 15.012 59.2927 14.96 59.2927 14.88C59.2927 14.8 59.3487 14.76 59.4607 14.76H60.9847C61.0967 14.76 61.1527 14.804 61.1527 14.892C61.1527 14.972 61.1047 15.028 61.0087 15.06L60.9007 15.096C60.7807 15.136 60.6807 15.208 60.6007 15.312C60.5207 15.416 60.4367 15.596 60.3487 15.852L58.5607 21.432C58.3847 21.992 58.2247 22.408 58.0807 22.68C57.9447 22.952 57.8127 23.128 57.6847 23.208C57.5567 23.296 57.4087 23.34 57.2407 23.34Z" fill="white"/>
</svg>
